<svg width="283" height="168" viewBox="0 0 283 168" fill="none" xmlns="http://www.w3.org/2000/svg">
<g clip-path="url(#clip0_138_676)">
<rect width="283" height="168" fill="white"/>
<path d="M185.318 128.854L188.986 119.054H191.282L194.95 128.854H193.074L192.15 126.32H188.02L187.082 128.854H185.318ZM188.538 124.892H191.632L190.092 120.664L188.538 124.892ZM198.605 129.022C196.715 129.022 195.371 127.496 195.371 125.326C195.371 123.17 196.715 121.644 198.605 121.644C199.585 121.644 200.369 122.05 200.901 122.778V119.054H202.637V127.3V128.854H200.901V127.888C200.369 128.616 199.585 129.022 198.605 129.022ZM197.121 125.326C197.121 126.642 197.947 127.594 199.067 127.594C200.201 127.594 200.999 126.67 200.999 125.326C200.999 123.996 200.201 123.072 199.067 123.072C197.947 123.072 197.121 124.024 197.121 125.326ZM207.109 129.022C205.219 129.022 203.875 127.496 203.875 125.326C203.875 123.17 205.219 121.644 207.109 121.644C208.089 121.644 208.873 122.05 209.405 122.778V119.054H211.141V127.3V128.854H209.405V127.888C208.873 128.616 208.089 129.022 207.109 129.022ZM205.625 125.326C205.625 126.642 206.451 127.594 207.571 127.594C208.705 127.594 209.503 126.67 209.503 125.326C209.503 123.996 208.705 123.072 207.571 123.072C206.451 123.072 205.625 124.024 205.625 125.326ZM212.548 128.854V121.812H214.284V128.854H212.548ZM212.296 119.684C212.296 119.054 212.786 118.564 213.416 118.564C214.06 118.564 214.55 119.054 214.55 119.684C214.55 120.328 214.06 120.818 213.416 120.818C212.786 120.818 212.296 120.328 212.296 119.684ZM219.137 129.064C217.009 129.064 215.469 127.496 215.469 125.326C215.469 123.184 217.023 121.602 219.137 121.602C221.013 121.602 222.497 122.778 222.595 124.5L220.887 124.64C220.789 123.758 220.061 123.128 219.137 123.128C218.003 123.128 217.205 124.052 217.205 125.326C217.205 126.712 218.101 127.524 219.137 127.524C220.019 127.524 220.789 126.908 220.887 125.928L222.609 126.054C222.525 127.846 221.041 129.064 219.137 129.064ZM227.696 128.798C226.268 129.26 224.588 128.686 224.588 126.516V123.254H223.342V121.812H224.588V120.034H226.324V121.812H228.074V123.254H226.324V126.39C226.324 127.342 226.87 127.566 227.668 127.342L227.696 128.798ZM229.064 128.854V121.812H230.8V128.854H229.064ZM228.812 119.684C228.812 119.054 229.302 118.564 229.932 118.564C230.576 118.564 231.066 119.054 231.066 119.684C231.066 120.328 230.576 120.818 229.932 120.818C229.302 120.818 228.812 120.328 228.812 119.684ZM234.532 128.854L231.746 121.812H233.566L235.442 126.964L237.332 121.812H239.082L236.296 128.854H234.532ZM242.952 129.106C240.838 129.106 239.326 127.524 239.326 125.326C239.326 123.142 240.838 121.56 242.924 121.56C245.36 121.56 246.662 123.66 246.354 125.858H241.076C241.132 126.95 241.902 127.748 242.966 127.748C243.806 127.748 244.506 127.272 244.744 126.558L246.228 126.782C245.948 128.084 244.66 129.106 242.952 129.106ZM241.09 124.556H244.674C244.674 123.618 243.96 122.862 242.924 122.862C241.958 122.862 241.216 123.548 241.09 124.556ZM251.936 125.886C251.936 126.978 252.44 127.622 253.308 127.622C254.19 127.622 254.722 127.006 254.82 125.928V121.812H256.556V126.376V128.854H254.82L254.848 127.776C254.456 128.56 253.714 129.022 252.706 129.022C251.208 129.022 250.2 127.916 250.2 126.236V121.812H251.936V125.886ZM260.794 129.106C259.016 129.106 257.728 128.112 257.658 126.642L259.254 126.6C259.324 127.37 259.94 127.888 260.794 127.888C261.494 127.888 262.026 127.58 262.026 127.02C262.026 126.614 261.746 126.348 261.046 126.194L260.206 125.998C258.82 125.718 258.078 124.976 258.078 123.856C258.078 122.47 259.226 121.56 260.878 121.56C262.614 121.56 263.846 122.554 263.93 124.024L262.362 124.08C262.278 123.31 261.69 122.778 260.892 122.778C260.234 122.778 259.744 123.128 259.744 123.688C259.744 124.094 260.038 124.346 260.57 124.472L261.41 124.668C262.922 124.962 263.734 125.69 263.734 126.824C263.734 128.21 262.502 129.106 260.794 129.106ZM268.423 129.106C266.309 129.106 264.797 127.524 264.797 125.326C264.797 123.142 266.309 121.56 268.395 121.56C270.831 121.56 272.133 123.66 271.825 125.858H266.547C266.603 126.95 267.373 127.748 268.437 127.748C269.277 127.748 269.977 127.272 270.215 126.558L271.699 126.782C271.419 128.084 270.131 129.106 268.423 129.106ZM266.561 124.556H270.145C270.145 123.618 269.431 122.862 268.395 122.862C267.429 122.862 266.687 123.548 266.561 124.556Z" fill="black"/>
<path opacity="0.3" d="M68.7261 156.374C68.2641 157.116 67.4521 157.55 66.2761 157.55V156.052C67.8861 156.052 68.7261 155.142 68.8801 153.728H70.4621V163.598H68.7261V156.374ZM74.6359 163.598V156.556H76.3719L76.3299 158.054C76.6379 157.018 77.4219 156.388 78.5559 156.388C79.6759 156.388 80.5299 157.004 80.8939 158.04C81.2159 157.004 82.0279 156.388 83.1899 156.388C84.6879 156.388 85.6959 157.494 85.6959 159.174V163.598H83.9599V159.524C83.9599 158.432 83.4559 157.788 82.5879 157.788C81.6359 157.788 81.0899 158.53 81.0899 159.832V163.598H79.3539V159.524C79.3539 158.432 78.8359 157.788 77.9259 157.788C76.9319 157.788 76.3719 158.53 76.3719 159.832V163.598H74.6359ZM90.5213 163.808C88.3793 163.808 86.8393 162.254 86.8393 160.07C86.8393 157.9 88.3793 156.346 90.5213 156.346C92.6493 156.346 94.1893 157.9 94.1893 160.07C94.1893 162.254 92.6493 163.808 90.5213 163.808ZM88.5893 160.07C88.5893 161.4 89.3733 162.338 90.5213 162.338C91.6553 162.338 92.4393 161.4 92.4393 160.07C92.4393 158.754 91.6553 157.816 90.5213 157.816C89.3733 157.816 88.5893 158.754 88.5893 160.07ZM95.3761 163.598V156.556H97.1121L97.0701 158.054C97.3781 157.018 98.1621 156.388 99.2961 156.388C100.822 156.388 101.844 157.522 101.844 159.258V163.598H100.108V159.524C100.108 158.432 99.5901 157.788 98.6661 157.788C97.6721 157.788 97.1121 158.53 97.1121 159.832V163.598H95.3761ZM107.078 163.542C105.65 164.004 103.97 163.43 103.97 161.26V157.998H102.724V156.556H103.97V154.778H105.706V156.556H107.456V157.998H105.706V161.134C105.706 162.086 106.252 162.31 107.05 162.086L107.078 163.542ZM108.515 163.598V153.798H110.251V157.914C110.587 156.962 111.357 156.388 112.435 156.388C113.961 156.388 114.983 157.522 114.983 159.258V163.598H113.247V159.524C113.247 158.432 112.729 157.788 111.805 157.788C110.811 157.788 110.251 158.53 110.251 159.832V163.598H108.515Z" fill="black"/>
<path d="M185.836 50.1934V40.3934H192.262V41.8354H187.656V44.6774H191.982V46.0914H187.656V50.1934H185.836ZM196.688 50.4034C194.546 50.4034 193.006 48.8494 193.006 46.6654C193.006 44.4954 194.546 42.9414 196.688 42.9414C198.816 42.9414 200.356 44.4954 200.356 46.6654C200.356 48.8494 198.816 50.4034 196.688 50.4034ZM194.756 46.6654C194.756 47.9954 195.54 48.9334 196.688 48.9334C197.822 48.9334 198.606 47.9954 198.606 46.6654C198.606 45.3494 197.822 44.4114 196.688 44.4114C195.54 44.4114 194.756 45.3494 194.756 46.6654ZM204.973 50.4034C202.845 50.4034 201.305 48.8354 201.305 46.6654C201.305 44.5234 202.859 42.9414 204.973 42.9414C206.849 42.9414 208.333 44.1174 208.431 45.8394L206.723 45.9794C206.625 45.0974 205.897 44.4674 204.973 44.4674C203.839 44.4674 203.041 45.3914 203.041 46.6654C203.041 48.0514 203.937 48.8634 204.973 48.8634C205.855 48.8634 206.625 48.2474 206.723 47.2674L208.445 47.3934C208.361 49.1854 206.877 50.4034 204.973 50.4034ZM211.289 47.2254C211.289 48.3174 211.793 48.9614 212.661 48.9614C213.543 48.9614 214.075 48.3454 214.173 47.2674V43.1514H215.909V47.7154V50.1934H214.173L214.201 49.1154C213.809 49.8994 213.067 50.3614 212.059 50.3614C210.561 50.3614 209.553 49.2554 209.553 47.5754V43.1514H211.289V47.2254ZM220.148 50.4454C218.37 50.4454 217.082 49.4514 217.012 47.9814L218.608 47.9394C218.678 48.7094 219.294 49.2274 220.148 49.2274C220.848 49.2274 221.38 48.9194 221.38 48.3594C221.38 47.9534 221.1 47.6874 220.4 47.5334L219.56 47.3374C218.174 47.0574 217.432 46.3154 217.432 45.1954C217.432 43.8094 218.58 42.8994 220.232 42.8994C221.968 42.8994 223.2 43.8934 223.284 45.3634L221.716 45.4194C221.632 44.6494 221.044 44.1174 220.246 44.1174C219.588 44.1174 219.098 44.4674 219.098 45.0274C219.098 45.4334 219.392 45.6854 219.924 45.8114L220.764 46.0074C222.276 46.3014 223.088 47.0294 223.088 48.1634C223.088 49.5494 221.856 50.4454 220.148 50.4454ZM230.037 50.3614C228.147 50.3614 226.803 48.8354 226.803 46.6654C226.803 44.5094 228.147 42.9834 230.037 42.9834C231.017 42.9834 231.801 43.3894 232.333 44.1174V40.3934H234.069V48.6394V50.1934H232.333V49.2274C231.801 49.9554 231.017 50.3614 230.037 50.3614ZM228.553 46.6654C228.553 47.9814 229.379 48.9334 230.499 48.9334C231.633 48.9334 232.431 48.0094 232.431 46.6654C232.431 45.3354 231.633 44.4114 230.499 44.4114C229.379 44.4114 228.553 45.3634 228.553 46.6654ZM237.17 47.2254C237.17 48.3174 237.674 48.9614 238.542 48.9614C239.424 48.9614 239.956 48.3454 240.054 47.2674V43.1514H241.79V47.7154V50.1934H240.054L240.082 49.1154C239.69 49.8994 238.948 50.3614 237.94 50.3614C236.442 50.3614 235.434 49.2554 235.434 47.5754V43.1514H237.17V47.2254ZM243.214 50.1934V43.1514H244.95L244.908 45.0834C245.216 43.4454 246.378 42.8994 247.568 43.1374V44.8594C246.21 44.6634 244.95 45.2794 244.95 47.1974V50.1934H243.214ZM250.55 50.3474C249.276 50.3474 248.31 49.5914 248.31 48.3734C248.31 47.0854 249.402 46.2594 251.67 46.0354L252.776 45.9374V45.7414C252.776 44.7754 252.09 44.3134 251.376 44.3134C250.704 44.3134 250.018 44.7474 249.934 45.6154L248.24 45.6014C248.366 43.8374 249.892 42.9694 251.404 42.9414C252.958 42.9134 254.498 43.8794 254.498 45.8394V48.1074C254.498 48.8634 254.568 49.6754 254.666 50.1934H252.972C252.902 49.8994 252.846 49.5634 252.846 49.0034C252.496 49.8574 251.502 50.3474 250.55 50.3474ZM250.046 48.2614C250.046 48.8634 250.55 49.1574 251.11 49.1574C251.894 49.1574 252.79 48.5974 252.79 47.3794V47.0154L251.866 47.1134C250.634 47.2534 250.046 47.6314 250.046 48.2614ZM259.716 50.1374C258.288 50.5994 256.608 50.0254 256.608 47.8554V44.5934H255.362V43.1514H256.608V41.3734H258.344V43.1514H260.094V44.5934H258.344V47.7294C258.344 48.6814 258.89 48.9054 259.688 48.6814L259.716 50.1374ZM261.084 50.1934V43.1514H262.82V50.1934H261.084ZM260.832 41.0234C260.832 40.3934 261.322 39.9034 261.952 39.9034C262.596 39.9034 263.086 40.3934 263.086 41.0234C263.086 41.6674 262.596 42.1574 261.952 42.1574C261.322 42.1574 260.832 41.6674 260.832 41.0234ZM267.686 50.4034C265.544 50.4034 264.004 48.8494 264.004 46.6654C264.004 44.4954 265.544 42.9414 267.686 42.9414C269.814 42.9414 271.354 44.4954 271.354 46.6654C271.354 48.8494 269.814 50.4034 267.686 50.4034ZM265.754 46.6654C265.754 47.9954 266.538 48.9334 267.686 48.9334C268.82 48.9334 269.604 47.9954 269.604 46.6654C269.604 45.3494 268.82 44.4114 267.686 44.4114C266.538 44.4114 265.754 45.3494 265.754 46.6654ZM272.541 50.1934V43.1514H274.277L274.235 44.6494C274.543 43.6134 275.327 42.9834 276.461 42.9834C277.987 42.9834 279.009 44.1174 279.009 45.8534V50.1934H277.273V46.1194C277.273 45.0274 276.755 44.3834 275.831 44.3834C274.837 44.3834 274.277 45.1254 274.277 46.4274V50.1934H272.541Z" fill="black"/>
<path d="M189.602 17.1625C187.628 17.1625 185.64 16.0145 185.598 13.7745L187.348 13.6625C187.39 14.9785 188.426 15.7205 189.616 15.7205C190.638 15.7205 191.478 15.1745 191.478 14.2785C191.478 13.6065 191.002 13.1865 190.078 12.9625L188.902 12.7105C186.914 12.2905 186.046 11.2405 186.046 9.84048C186.046 7.86648 187.796 6.83048 189.56 6.83048C191.408 6.83048 193.256 7.93648 193.396 10.1205L191.59 10.2185C191.506 8.95848 190.568 8.27248 189.532 8.27248C188.608 8.27248 187.824 8.81848 187.824 9.70048C187.824 10.3725 188.272 10.7785 189.07 10.9745L190.246 11.2265C192.304 11.6745 193.27 12.6965 193.27 14.1525C193.27 16.1545 191.45 17.1625 189.602 17.1625ZM197.716 16.8125C196.176 17.2045 194.664 16.8545 194.664 14.6985V7.09648H196.4V14.3485C196.4 15.3005 196.876 15.5665 197.702 15.3425L197.716 16.8125ZM201.991 17.1485C199.877 17.1485 198.365 15.5665 198.365 13.3685C198.365 11.1845 199.877 9.60248 201.963 9.60248C204.399 9.60248 205.701 11.7025 205.393 13.9005H200.115C200.171 14.9925 200.941 15.7905 202.005 15.7905C202.845 15.7905 203.545 15.3145 203.783 14.6005L205.267 14.8245C204.987 16.1265 203.699 17.1485 201.991 17.1485ZM200.129 12.5985H203.713C203.713 11.6605 202.999 10.9045 201.963 10.9045C200.997 10.9045 200.255 11.5905 200.129 12.5985ZM210.03 17.1485C207.916 17.1485 206.404 15.5665 206.404 13.3685C206.404 11.1845 207.916 9.60248 210.002 9.60248C212.438 9.60248 213.74 11.7025 213.432 13.9005H208.154C208.21 14.9925 208.98 15.7905 210.044 15.7905C210.884 15.7905 211.584 15.3145 211.822 14.6005L213.306 14.8245C213.026 16.1265 211.738 17.1485 210.03 17.1485ZM208.168 12.5985H211.752C211.752 11.6605 211.038 10.9045 210.002 10.9045C209.036 10.9045 208.294 11.5905 208.168 12.5985ZM214.681 19.5565V9.85448H216.417V10.8205C216.949 10.0925 217.733 9.68648 218.713 9.68648C220.603 9.68648 221.947 11.2125 221.947 13.3825C221.947 15.5385 220.603 17.0645 218.713 17.0645C217.733 17.0645 216.949 16.6585 216.417 15.9305V19.5565H214.681ZM216.319 13.3825C216.319 14.7125 217.117 15.6365 218.251 15.6365C219.371 15.6365 220.197 14.6845 220.197 13.3825C220.197 12.0665 219.371 11.1145 218.251 11.1145C217.117 11.1145 216.319 12.0385 216.319 13.3825ZM228.779 17.0645C226.889 17.0645 225.545 15.5385 225.545 13.3685C225.545 11.2125 226.889 9.68648 228.779 9.68648C229.759 9.68648 230.543 10.0925 231.075 10.8205V9.85448H232.811V19.5565H231.075V15.9305C230.543 16.6585 229.759 17.0645 228.779 17.0645ZM227.295 13.3685C227.295 14.6845 228.121 15.6365 229.241 15.6365C230.375 15.6365 231.173 14.7125 231.173 13.3685C231.173 12.0385 230.375 11.1145 229.241 11.1145C228.121 11.1145 227.295 12.0665 227.295 13.3685ZM235.912 13.9285C235.912 15.0205 236.416 15.6645 237.284 15.6645C238.166 15.6645 238.698 15.0485 238.796 13.9705V9.85448H240.532V14.4185V16.8965H238.796L238.824 15.8185C238.432 16.6025 237.69 17.0645 236.682 17.0645C235.184 17.0645 234.176 15.9585 234.176 14.2785V9.85448H235.912V13.9285ZM244.001 17.0505C242.727 17.0505 241.761 16.2945 241.761 15.0765C241.761 13.7885 242.853 12.9625 245.121 12.7385L246.227 12.6405V12.4445C246.227 11.4785 245.541 11.0165 244.827 11.0165C244.155 11.0165 243.469 11.4505 243.385 12.3185L241.691 12.3045C241.817 10.5405 243.343 9.67248 244.855 9.64448C246.409 9.61648 247.949 10.5825 247.949 12.5425V14.8105C247.949 15.5665 248.019 16.3785 248.117 16.8965H246.423C246.353 16.6025 246.297 16.2665 246.297 15.7065C245.947 16.5605 244.953 17.0505 244.001 17.0505ZM243.497 14.9645C243.497 15.5665 244.001 15.8605 244.561 15.8605C245.345 15.8605 246.241 15.3005 246.241 14.0825V13.7185L245.317 13.8165C244.085 13.9565 243.497 14.3345 243.497 14.9645ZM252.349 16.8125C250.809 17.2045 249.297 16.8545 249.297 14.6985V7.09648H251.033V14.3485C251.033 15.3005 251.509 15.5665 252.335 15.3425L252.349 16.8125ZM253.386 16.8965V9.85448H255.122V16.8965H253.386ZM253.134 7.72648C253.134 7.09648 253.624 6.60648 254.254 6.60648C254.898 6.60648 255.388 7.09648 255.388 7.72648C255.388 8.37048 254.898 8.86048 254.254 8.86048C253.624 8.86048 253.134 8.37048 253.134 7.72648ZM260.522 16.8405C259.094 17.3025 257.414 16.7285 257.414 14.5585V11.2965H256.168V9.85448H257.414V8.07648H259.15V9.85448H260.9V11.2965H259.15V14.4325C259.15 15.3845 259.696 15.6085 260.494 15.3845L260.522 16.8405ZM262.054 18.1985C262.852 18.4085 263.804 18.3245 264.322 17.2185L264.532 16.7285L261.578 9.85448H263.426L265.484 14.7825L267.388 9.85448H269.152L266.156 17.1625C265.302 19.2905 263.832 20.0885 262.054 19.6545V18.1985Z" fill="black"/>
<line x1="4.05871" y1="8.43759e-08" x2="4.05871" y2="139.946" stroke="black" stroke-width="3.86059"/>
<line x1="173.925" y1="141.878" x2="2.12856" y2="141.878" stroke="black" stroke-width="3.86059"/>
<path d="M170.064 126.918C170.064 126.918 130.493 123.54 111.223 117.266C91.9529 110.993 80.7883 111.958 50.8687 83.9689C20.9492 55.9796 12.2628 17.3737 12.2628 17.3737" stroke="#AEC5F6" stroke-width="3.86059" stroke-linecap="round"/>
<path d="M170.064 45.3633C170.064 45.3633 149.314 65.1488 121.325 80.1086C93.3352 95.0684 81.7535 97.9638 51.4904 106.168C21.2273 114.371 12.2628 124.023 12.2628 124.023" stroke="#BAF6AE" stroke-width="3.86059" stroke-linecap="round"/>
<path d="M170.064 10.5905C170.064 10.5905 137.732 4.49007 109.743 23.4014C81.7535 42.3128 65.346 72.8145 51.4904 87.456C37.6348 102.098 12.2628 110.028 12.2628 110.028" stroke="#F2ADFE" stroke-width="3.86059" stroke-linecap="round"/>
</g>
<defs>
<clipPath id="clip0_138_676">
<rect width="283" height="168" fill="white"/>
</clipPath>
</defs>
</svg>
